<svg width="16" height="16" viewBox="0 0 16 16" fill="none" xmlns="http://www.w3.org/2000/svg">
<path d="M11.8333 13C12.2754 13 12.6993 13.1756 13.0118 13.4881C13.3244 13.8007 13.5 14.2246 13.5 14.6666C13.5 14.2246 13.6756 13.8007 13.9882 13.4881C14.3007 13.1756 14.7246 13 15.1667 13C14.7246 13 14.3007 12.8244 13.9882 12.5118C13.6756 12.1993 13.5 11.7753 13.5 11.3333C13.5 11.7753 13.3244 12.1993 13.0118 12.5118C12.6993 12.8244 12.2754 13 11.8333 13ZM11.8333 2.99998C12.2754 2.99998 12.6993 3.17557 13.0118 3.48813C13.3244 3.8007 13.5 4.22462 13.5 4.66665C13.5 4.22462 13.6756 3.8007 13.9882 3.48813C14.3007 3.17557 14.7246 2.99998 15.1667 2.99998C14.7246 2.99998 14.3007 2.82438 13.9882 2.51182C13.6756 2.19926 13.5 1.77534 13.5 1.33331C13.5 1.77534 13.3244 2.19926 13.0118 2.51182C12.6993 2.82438 12.2754 2.99998 11.8333 2.99998ZM6 13C6 11.6739 6.52678 10.4021 7.46447 9.46445C8.40215 8.52676 9.67392 7.99998 11 7.99998C9.67392 7.99998 8.40215 7.4732 7.46447 6.53551C6.52678 5.59783 6 4.32606 6 2.99998C6 4.32606 5.47322 5.59783 4.53553 6.53551C3.59785 7.4732 2.32608 7.99998 1 7.99998C2.32608 7.99998 3.59785 8.52676 4.53553 9.46445C5.47322 10.4021 6 11.6739 6 13Z" stroke="#170338" stroke-width="1.5" stroke-linecap="round" stroke-linejoin="round"/>
</svg>
